<svg xmlns="http://www.w3.org/2000/svg" viewBox="0 0 32 32" width="32" height="32">
  <!-- Rounded square background -->
  <rect width="32" height="32" rx="6" fill="#00a0d6"/>
  
  <!-- Truck icon centered -->
  <g transform="translate(5, 5) scale(0.92)">
    <path d="M18 18.5c.83 0 1.5-.67 1.5-1.5s-.67-1.5-1.5-1.5-1.5.67-1.5 1.5.67 1.5 1.5 1.5zM19.5 9.5L21.46 12H17V9.5h2.5zM6 18.5c.83 0 1.5-.67 1.5-1.5s-.67-1.5-1.5-1.5-1.5.67-1.5 1.5.67 1.5 1.5 1.5zM20 8h-3V4H3c-1.1 0-2 .9-2 2v11h2c0 1.66 1.34 3 3 3s3-1.34 3-3h6c0 1.66 1.34 3 3 3s3-1.34 3-3h2v-5l-3-4z" fill="white"/>
  </g>
</svg>
